<?xml version="1.0" standalone="no"?>
<!DOCTYPE svg PUBLIC "-//W3C//DTD SVG 20010904//EN"
 "http://www.w3.org/TR/2001/REC-SVG-20010904/DTD/svg10.dtd">
<svg version="1.0" xmlns="http://www.w3.org/2000/svg"
 width="96.000000pt" height="96.000000pt" viewBox="0 0 96.000000 96.000000"
 preserveAspectRatio="xMidYMid meet">

<g transform="translate(0.000000,96.000000) scale(0.100000,-0.100000)"
fill="#004f39" stroke="none">
<path d="M190 765 l-44 -45 47 -48 47 -47 45 45 45 46 -48 47 -48 47 -44 -45z"/>
<path d="M427 762 c-20 -21 -37 -42 -37 -48 0 -5 19 -29 43 -52 l43 -42 42 43
c23 23 42 47 42 53 0 13 -73 84 -86 84 -5 0 -27 -17 -47 -38z"/>
<path d="M662 757 l-42 -43 45 -44 45 -44 45 44 45 44 -42 43 c-23 24 -45 43
-48 43 -3 0 -25 -19 -48 -43z"/>
<path d="M310 645 l-44 -45 45 -45 45 -45 44 45 44 45 -45 45 -45 45 -44 -45z"/>
<path d="M547 642 l-47 -48 46 -43 47 -43 46 46 46 46 -45 45 -46 45 -47 -48z"/>
<path d="M190 525 l-44 -45 44 -45 44 -45 48 47 48 47 -42 43 c-23 24 -45 43
-48 43 -3 0 -26 -20 -50 -45z"/>
<path d="M430 525 l-44 -45 45 -45 45 -45 44 45 44 45 -45 45 -45 45 -44 -45z"/>
<path d="M662 527 l-42 -43 48 -47 48 -47 44 45 44 45 -44 45 c-24 25 -47 45
-50 45 -3 0 -25 -19 -48 -43z"/>
<path d="M307 410 c-20 -23 -37 -43 -37 -46 0 -5 21 -26 63 -63 l27 -25 45 44
45 44 -42 43 c-23 24 -47 43 -53 43 -6 0 -28 -18 -48 -40z"/>
<path d="M542 407 l-42 -43 43 -42 c23 -23 46 -42 49 -42 4 0 26 19 48 41 l41
42 -42 43 c-24 24 -46 44 -49 44 -3 0 -25 -19 -48 -43z"/>
<path d="M190 295 l-44 -45 44 -45 44 -45 48 47 48 47 -42 43 c-23 24 -45 43
-48 43 -3 0 -26 -20 -50 -45z"/>
<path d="M430 295 l-44 -45 45 -45 45 -45 44 45 44 45 -45 45 -45 45 -44 -45z"/>
<path d="M662 297 l-42 -43 48 -47 48 -47 44 45 44 45 -44 45 c-24 25 -47 45
-50 45 -3 0 -25 -19 -48 -43z"/>
</g>
</svg>
